<?xml version="1.0" encoding="utf-8"?>
<!-- Generator: Adobe Illustrator 21.0.2, SVG Export Plug-In . SVG Version: 6.00 Build 0)  -->
<svg xmlns="http://www.w3.org/2000/svg" xmlns:xlink="http://www.w3.org/1999/xlink" version="1.1" id="Layer_1" x="0px" y="0px" viewBox="0 0 48 48" style="enable-background:new 0 0 48 48;" xml:space="preserve" width="512px" height="512px">
<g id="surface1">
	<path style="fill:#FF3D00;" d="M42,37c0,2.8-2.2,5-5,5H11c-2.8,0-5-2.2-5-5V11c0-2.8,2.2-5,5-5h26c2.8,0,5,2.2,5,5V37z"/>
	<path style="fill:#FFFFFF;" d="M24,36c-7.9,0-10-6.5-10-10V15c0-1.1,0.9-2,2-2s2,0.9,2,2v11c0,1,0.4,6,6,6s6-5,6-6c0-0.8-0.4-5-6-5   c-1.1,0-2-0.9-2-2s0.9-2,2-2c7.9,0,10,5.9,10,9C34,29.5,31.9,36,24,36z"/>
</g>
</svg>
